<?xml version="1.0" standalone="no"?>
<!DOCTYPE svg PUBLIC "-//W3C//DTD SVG 20010904//EN"
 "http://www.w3.org/TR/2001/REC-SVG-20010904/DTD/svg10.dtd">
<svg version="1.0" xmlns="http://www.w3.org/2000/svg"
 width="64.000000pt" height="64.000000pt" viewBox="0 0 64.000000 64.000000"
 preserveAspectRatio="xMidYMid meet">

<g transform="translate(0.000000,64.000000) scale(0.100000,-0.100000)"
fill="#000000" stroke="none">
<path d="M262 588 c-17 -17 -17 -249 0 -266 7 -7 45 -12 99 -12 87 0 87 0 118
-35 17 -19 33 -35 36 -35 3 0 5 16 5 35 0 32 2 35 30 35 19 0 33 7 40 19 14
28 13 183 -3 204 -9 13 -52 24 -157 42 -171 29 -153 28 -168 13z m96 -146 c2
-7 -3 -12 -12 -12 -9 0 -16 7 -16 16 0 17 22 14 28 -4z m80 0 c2 -7 -3 -12
-12 -12 -9 0 -16 7 -16 16 0 17 22 14 28 -4z m80 0 c2 -7 -3 -12 -12 -12 -9 0
-16 7 -16 16 0 17 22 14 28 -4z"/>
<path d="M116 365 c-32 -7 -62 -19 -67 -26 -5 -8 -9 -55 -9 -105 0 -97 5 -109
50 -116 21 -2 26 -10 30 -42 l5 -40 34 40 35 39 95 5 96 5 3 83 3 82 -65 0
c-74 0 -96 14 -96 61 0 25 -4 29 -27 28 -16 -1 -54 -7 -87 -14z m34 -121 c0
-9 -5 -14 -12 -12 -18 6 -21 28 -4 28 9 0 16 -7 16 -16z m80 0 c0 -17 -22 -14
-28 4 -2 7 3 12 12 12 9 0 16 -7 16 -16z m78 5 c-2 -6 -8 -10 -13 -10 -5 0
-11 4 -13 10 -2 6 4 11 13 11 9 0 15 -5 13 -11z"/>
</g>
</svg>
